<svg id="visual" viewBox="0 0 960 300" width="960" height="300" xmlns="http://www.w3.org/2000/svg" xmlns:xlink="http://www.w3.org/1999/xlink" version="1.1"><rect x="0" y="0" width="960" height="300" fill="#FF0074"></rect><g transform="translate(472.04241035171026 153.05838299058968)"><path d="M19.9 -30.3C38.8 -23.6 76.1 -44.5 100.2 -44.1C124.3 -43.7 135.1 -21.8 121.7 -7.8C108.3 6.3 70.6 12.7 54.6 27.1C38.6 41.5 44.3 64.1 38.8 60.9C33.3 57.7 16.7 28.9 1.3 26.6C-14 24.3 -28 48.5 -49.7 61C-71.3 73.5 -100.6 74.2 -108.9 62.1C-117.3 50 -104.6 25 -91.9 7.3C-79.2 -10.3 -66.5 -20.7 -54.1 -25.9C-41.8 -31.1 -29.9 -31.1 -20.9 -43.6C-12 -56.1 -6 -81.1 -2.8 -76.3C0.5 -71.5 1 -37.1 19.9 -30.3" fill="#BB004B"></path></g></svg>