<svg id="visual" viewBox="0 0 960 300" width="960" height="300" xmlns="http://www.w3.org/2000/svg" xmlns:xlink="http://www.w3.org/1999/xlink" version="1.1"><rect x="0" y="0" width="960" height="300" fill="#6600FF"></rect><path d="M0 176L22.8 177.5C45.7 179 91.3 182 137 182C182.7 182 228.3 179 274 174C319.7 169 365.3 162 411.2 166.2C457 170.3 503 185.7 548.8 195.2C594.7 204.7 640.3 208.3 686 209.3C731.7 210.3 777.3 208.7 823 205.8C868.7 203 914.3 199 937.2 197L960 195L960 0L937.2 0C914.3 0 868.7 0 823 0C777.3 0 731.7 0 686 0C640.3 0 594.7 0 548.8 0C503 0 457 0 411.2 0C365.3 0 319.7 0 274 0C228.3 0 182.7 0 137 0C91.3 0 45.7 0 22.8 0L0 0Z" fill="#6600ff"></path><path d="M0 145L22.8 146.5C45.7 148 91.3 151 137 153.5C182.7 156 228.3 158 274 150.7C319.7 143.3 365.3 126.7 411.2 122.8C457 119 503 128 548.8 132.2C594.7 136.3 640.3 135.7 686 130.5C731.7 125.3 777.3 115.7 823 114.2C868.7 112.7 914.3 119.3 937.2 122.7L960 126L960 0L937.2 0C914.3 0 868.7 0 823 0C777.3 0 731.7 0 686 0C640.3 0 594.7 0 548.8 0C503 0 457 0 411.2 0C365.3 0 319.7 0 274 0C228.3 0 182.7 0 137 0C91.3 0 45.7 0 22.8 0L0 0Z" fill="#9c58ff"></path><path d="M0 98L22.8 94.8C45.7 91.7 91.3 85.3 137 84.5C182.7 83.7 228.3 88.3 274 90.2C319.7 92 365.3 91 411.2 98.7C457 106.3 503 122.7 548.8 128.7C594.7 134.7 640.3 130.3 686 123.5C731.7 116.7 777.3 107.3 823 100.3C868.7 93.3 914.3 88.7 937.2 86.3L960 84L960 0L937.2 0C914.3 0 868.7 0 823 0C777.3 0 731.7 0 686 0C640.3 0 594.7 0 548.8 0C503 0 457 0 411.2 0C365.3 0 319.7 0 274 0C228.3 0 182.7 0 137 0C91.3 0 45.7 0 22.8 0L0 0Z" fill="#c391ff"></path><path d="M0 54L22.8 54.3C45.7 54.7 91.3 55.3 137 63C182.7 70.7 228.3 85.3 274 85.5C319.7 85.7 365.3 71.3 411.2 67.3C457 63.3 503 69.7 548.8 70.3C594.7 71 640.3 66 686 62.2C731.7 58.3 777.3 55.7 823 56.7C868.7 57.7 914.3 62.3 937.2 64.7L960 67L960 0L937.2 0C914.3 0 868.7 0 823 0C777.3 0 731.7 0 686 0C640.3 0 594.7 0 548.8 0C503 0 457 0 411.2 0C365.3 0 319.7 0 274 0C228.3 0 182.7 0 137 0C91.3 0 45.7 0 22.8 0L0 0Z" fill="#e3c8ff"></path><path d="M0 51L22.8 49.3C45.7 47.7 91.3 44.3 137 46.7C182.7 49 228.3 57 274 55.5C319.7 54 365.3 43 411.2 38.5C457 34 503 36 548.8 40.8C594.7 45.7 640.3 53.3 686 51.5C731.7 49.7 777.3 38.3 823 37.5C868.7 36.7 914.3 46.3 937.2 51.2L960 56L960 0L937.2 0C914.3 0 868.7 0 823 0C777.3 0 731.7 0 686 0C640.3 0 594.7 0 548.8 0C503 0 457 0 411.2 0C365.3 0 319.7 0 274 0C228.3 0 182.7 0 137 0C91.3 0 45.7 0 22.8 0L0 0Z" fill="#ffffff"></path></svg>