<svg id="visual" viewBox="0 0 960 300" width="960" height="300" xmlns="http://www.w3.org/2000/svg" xmlns:xlink="http://www.w3.org/1999/xlink" version="1.1"><rect x="0" y="0" width="960" height="300" fill="#FFFFFF"></rect><path d="M0 87L22.8 93.8C45.7 100.7 91.3 114.3 137 120.7C182.7 127 228.3 126 274 120.3C319.7 114.7 365.3 104.3 411.2 96.3C457 88.3 503 82.7 548.8 82.3C594.7 82 640.3 87 686 94.5C731.7 102 777.3 112 823 118.8C868.7 125.7 914.3 129.3 937.2 131.2L960 133L960 301L937.2 301C914.3 301 868.7 301 823 301C777.3 301 731.7 301 686 301C640.3 301 594.7 301 548.8 301C503 301 457 301 411.2 301C365.3 301 319.7 301 274 301C228.3 301 182.7 301 137 301C91.3 301 45.7 301 22.8 301L0 301Z" fill="#d3d1e3"></path><path d="M0 157L22.8 150.3C45.7 143.7 91.3 130.3 137 125.7C182.7 121 228.3 125 274 130.5C319.7 136 365.3 143 411.2 150.2C457 157.3 503 164.7 548.8 165C594.7 165.3 640.3 158.7 686 154.8C731.7 151 777.3 150 823 152.3C868.7 154.7 914.3 160.3 937.2 163.2L960 166L960 301L937.2 301C914.3 301 868.7 301 823 301C777.3 301 731.7 301 686 301C640.3 301 594.7 301 548.8 301C503 301 457 301 411.2 301C365.3 301 319.7 301 274 301C228.3 301 182.7 301 137 301C91.3 301 45.7 301 22.8 301L0 301Z" fill="#d0b3e4"></path><path d="M0 204L22.8 196.5C45.7 189 91.3 174 137 169C182.7 164 228.3 169 274 172.5C319.7 176 365.3 178 411.2 178.7C457 179.3 503 178.7 548.8 177.2C594.7 175.7 640.3 173.3 686 170.8C731.7 168.3 777.3 165.7 823 171C868.7 176.3 914.3 189.7 937.2 196.3L960 203L960 301L937.2 301C914.3 301 868.7 301 823 301C777.3 301 731.7 301 686 301C640.3 301 594.7 301 548.8 301C503 301 457 301 411.2 301C365.3 301 319.7 301 274 301C228.3 301 182.7 301 137 301C91.3 301 45.7 301 22.8 301L0 301Z" fill="#e08ed3"></path><path d="M0 227L22.8 227.8C45.7 228.7 91.3 230.3 137 228.5C182.7 226.7 228.3 221.3 274 217.2C319.7 213 365.3 210 411.2 211C457 212 503 217 548.8 219C594.7 221 640.3 220 686 215.2C731.7 210.3 777.3 201.7 823 201.7C868.7 201.7 914.3 210.3 937.2 214.7L960 219L960 301L937.2 301C914.3 301 868.7 301 823 301C777.3 301 731.7 301 686 301C640.3 301 594.7 301 548.8 301C503 301 457 301 411.2 301C365.3 301 319.7 301 274 301C228.3 301 182.7 301 137 301C91.3 301 45.7 301 22.8 301L0 301Z" fill="#f45fad"></path><path d="M0 255L22.8 251.8C45.7 248.7 91.3 242.3 137 242.3C182.7 242.3 228.3 248.7 274 250.8C319.7 253 365.3 251 411.2 250.8C457 250.7 503 252.3 548.8 254.2C594.7 256 640.3 258 686 261.3C731.7 264.7 777.3 269.3 823 271.3C868.7 273.3 914.3 272.7 937.2 272.3L960 272L960 301L937.2 301C914.3 301 868.7 301 823 301C777.3 301 731.7 301 686 301C640.3 301 594.7 301 548.8 301C503 301 457 301 411.2 301C365.3 301 319.7 301 274 301C228.3 301 182.7 301 137 301C91.3 301 45.7 301 22.8 301L0 301Z" fill="#ff0074"></path></svg>